<svg viewBox="0 0 24 24" width="24" height="24" stroke="currentColor" stroke-width="2" fill="none" stroke-linecap="round" stroke-linejoin="round" class="css-i6dzq1"><path d="M13 2H6a2 2 0 0 0-2 2v16a2 2 0 0 0 2 2h12a2 2 0 0 0 2-2V9z"></path><polyline points="13 2 13 9 20 9"></polyline><line x1="12" y1="10" x2="12" y2="12"></line><line x1="12" y1="18" x2="12" y2="20"></line><line x1="8.59" y1="11.59" x2="10" y2="13"></line><line x1="14" y1="17" x2="15.41" y2="18.41"></line><line x1="7" y1="15" x2="9" y2="15"></line><line x1="15" y1="15" x2="17" y2="15"></line><line x1="8.59" y1="18.41" x2="10" y2="17"></line><line x1="14" y1="13" x2="15.41" y2="11.59"></line></svg>