<svg xmlns="http://www.w3.org/2000/svg" height="48" viewBox="0 -960 960 960" width="48" fill="#ffffff"><path d="M753-237v-92q0-8-6-14t-14-6q-8 0-14 6t-6 14v96q0 5.818 2 10.909Q717-217 722-212l63.731 63.731Q792-142 800-142t14-6q6-6 6-14t-6-14l-61-61ZM180-120q-24.75 0-42.375-17.625T120-180v-600q0-24.75 17.625-42.375T180-840h600q24.75 0 42.375 17.625T840-780v329q-14-8-29.5-13t-30.5-8v-308H180v600h309q4 16 9.023 31.172Q503.045-133.655 510-120H180Zm0-107v47-600 308-4 249Zm100-82.825q0 12.825 8.625 21.325T310-280h180.595Q495-296 500-311q5-15 13-29H310q-12.75 0-21.375 8.675-8.625 8.676-8.625 21.5Zm0-170q0 12.825 8.625 21.325T310-450h314q14-7 27-11.5t29-8.5v-10q0-12-9-21t-21-9H310q-12.75 0-21.375 8.675-8.625 8.676-8.625 21.5Zm0-170q0 12.825 8.625 21.325T310-620h340q12.75 0 21.375-8.675 8.625-8.676 8.625-21.5 0-12.825-8.625-21.325T650-680H310q-12.75 0-21.375 8.675-8.625 8.676-8.625 21.5ZM732.5-41Q655-41 600-96.5T545-228q0-78.435 54.99-133.717Q654.98-417 733-417q77 0 132.5 55.283Q921-306.435 921-228q0 76-55.5 131.5T732.5-41Z"/></svg>